<svg xmlns="http://www.w3.org/2000/svg" width="35" height="35" fill="none" viewBox="0 0 35 35">
    <path fill="#fff" d="M31.491 14.035H35c-.263-5.623-3.035-10.57-7.237-13.772l-2.5 2.5c3.562 2.553 5.956 6.623 6.228 11.272zM9.746 2.772L7.236.263C3.037 3.465.264 8.413 0 14.035h3.509c.272-4.649 2.666-8.72 6.237-11.263zM28.026 14.912c0-5.394-2.868-9.894-7.895-11.087V2.632C20.131 1.175 18.956 0 17.5 0c-1.456 0-2.632 1.175-2.632 2.632v1.193C9.842 5.018 6.974 9.518 6.974 14.912v8.772l-3.51 3.509v1.754h28.071v-1.754l-3.509-3.509v-8.772zM17.5 34.21c.246 0 .482-.026.71-.07 1.14-.236 2.08-1.026 2.527-2.07.175-.42.272-.877.272-1.368H13.99c0 1.939 1.57 3.509 3.509 3.509z"/>
</svg>
