<svg xmlns="http://www.w3.org/2000/svg" width="39" height="39" fill="none" viewBox="0 0 39 39">
    <g fill="#fff" clip-path="url(#prefix__clip0)">
        <path d="M32.736 2.628H6.226C3.455 2.628 1.2 4.883 1.2 7.655v16.223c0 2.765 2.245 5.017 5.009 5.026v7.362l10.58-7.362h15.947c2.771 0 5.026-2.255 5.026-5.026V7.655c0-2.772-2.255-5.027-5.026-5.027zm2.884 21.25c0 1.59-1.294 2.884-2.884 2.884h-16.62l-7.765 5.404v-5.404H6.226c-1.59 0-2.884-1.294-2.884-2.884V7.655c0-1.591 1.294-2.885 2.884-2.885h26.51c1.59 0 2.884 1.294 2.884 2.885v16.223z"/>
        <path d="M10.985 10.198h16.991v2.142h-16.99v-2.142zM10.985 14.768h16.991v2.142h-16.99v-2.142zM10.985 19.338h16.991v2.143h-16.99v-2.143z"/>
    </g>
    <defs>
        <clipPath id="prefix__clip0">
            <path fill="#fff" d="M0 0h39v39H0V0z"/>
        </clipPath>
    </defs>
</svg>
