<svg xmlns="http://www.w3.org/2000/svg" width="20" height="20" fill="none" viewBox="0 0 20 20">
    <g fill="#fff" clip-path="url(#prefix__clip0)">
        <path d="M18.46 12.564c-.276 0-.499.223-.499.498v4.423c0 .825-.67 1.493-1.494 1.494H2.49c-.825-.001-1.494-.67-1.495-1.494V4.505c.001-.825.67-1.494 1.495-1.495h4.422c.275 0 .498-.223.498-.498s-.223-.498-.498-.498H2.491C1.116 2.015 0 3.13 0 4.504v12.98c.002 1.375 1.116 2.49 2.49 2.491h13.977c1.375-.001 2.489-1.116 2.49-2.49v-4.423c0-.275-.223-.498-.498-.498z"/>
        <path d="M18.76.732c-.875-.875-2.294-.875-3.17 0L6.704 9.62c-.061.06-.105.136-.128.22l-1.169 4.218c-.048.173.001.358.128.485s.312.176.485.128l4.22-1.169c.082-.022.158-.066.218-.127l8.887-8.887c.874-.876.874-2.294 0-3.17L18.76.732zM7.79 9.942l7.272-7.272 2.346 2.345-7.274 7.273L7.79 9.943zm-.47.94l1.874 1.875-2.592.718.719-2.592zm11.32-7.1l-.528.529-2.346-2.346.529-.528c.486-.486 1.274-.486 1.76 0l.585.584c.486.487.486 1.275 0 1.762z"/>
    </g>
    <defs>
        <clipPath id="prefix__clip0">
            <path fill="#fff" d="M0 0h20v20H0V0z"/>
        </clipPath>
    </defs>
</svg>
