<svg xmlns="http://www.w3.org/2000/svg" width="34" height="34" fill="none" viewBox="0 0 34 34">
    <g fill="#fff" clip-path="url(#prefix__clip0)">
        <path d="M2.125 8.5H8.5V2.125h14.875v4.25H25.5V0H6.998L0 6.998V34h17v-2.125H2.125V8.5zm4.25-4.873v2.748H3.627l2.748-2.748z"/>
        <path d="M25.5 8.5h-2.125v2.125H25.5V8.5zM25.5 12.75h-2.125v2.125H25.5V12.75zM25.5 17c-4.694 0-8.5 3.806-8.5 8.5s3.806 8.5 8.5 8.5 8.5-3.806 8.5-8.5c-.005-4.692-3.808-8.495-8.5-8.5zm0 14.875c-3.52 0-6.375-2.854-6.375-6.375 0-3.52 2.854-6.375 6.375-6.375 3.52 0 6.375 2.854 6.375 6.375-.003 3.52-2.856 6.372-6.375 6.375zM21.25 10.625h-17V17h17v-6.375zm-2.125 4.25H6.375V12.75h12.75v2.125zM15.938 19.125H4.25v2.125h11.688v-2.125zM13.813 23.375H4.25V25.5h9.563v-2.125z"/>
        <path d="M26.563 21.25h-2.125v5.313h4.25v-2.125h-2.125V21.25z"/>
    </g>
    <defs>
        <clipPath id="prefix__clip0">
            <path fill="#fff" d="M0 0h34v34H0V0z"/>
        </clipPath>
    </defs>
</svg>
