<svg xmlns="http://www.w3.org/2000/svg" width="35" height="35" fill="none" viewBox="0 0 35 35">
    <g fill="#fff" clip-path="url(#prefix__clip0)">
        <path d="M33.975 13.18h-2.94c-.24-.755-.545-1.49-.91-2.195l2.08-2.08c.192-.192.3-.452.3-.724 0-.272-.108-.533-.3-.725l-4.66-4.66c-.4-.4-1.05-.4-1.45 0l-2.08 2.08c-.706-.366-1.44-.67-2.195-.912V1.025C21.82.46 21.361 0 20.795 0h-6.59c-.566 0-1.025.46-1.025 1.025v2.94c-.755.24-1.489.545-2.195.91l-2.08-2.08c-.4-.4-1.049-.4-1.45 0l-4.66 4.66c-.191.193-.3.454-.3.725 0 .272.109.533.3.725l2.08 2.08c-.365.706-.67 1.44-.91 2.195h-2.94C.46 13.18 0 13.639 0 14.205v6.59c0 .566.46 1.025 1.025 1.025h2.94c.24.755.545 1.489.91 2.195l-2.08 2.08c-.191.192-.3.452-.3.724 0 .272.109.533.3.725l4.66 4.66c.401.4 1.05.4 1.45 0l2.08-2.08c.706.366 1.44.67 2.195.912v2.939c0 .566.459 1.025 1.025 1.025h6.59c.566 0 1.025-.46 1.025-1.025v-2.94c.755-.24 1.49-.545 2.195-.91l2.08 2.08c.4.4 1.05.4 1.45 0l4.66-4.66c.4-.4.4-1.05 0-1.45l-2.08-2.08c.365-.706.67-1.44.91-2.195h2.94c.566 0 1.025-.459 1.025-1.025v-6.59c0-.566-.459-1.025-1.025-1.025zm-1.026 6.59h-2.685c-.467 0-.876.316-.993.77-.282 1.097-.72 2.15-1.3 3.133-.238.403-.173.916.158 1.247l1.9 1.9-3.21 3.209-1.9-1.9c-.33-.33-.843-.396-1.246-.158-.982.58-2.036 1.018-3.134 1.3-.453.117-.77.526-.77.993v2.685h-4.538v-2.685c0-.467-.317-.876-.77-.993-1.097-.282-2.152-.72-3.134-1.3-.403-.238-.915-.173-1.246.158l-1.9 1.9-3.21-3.21 1.9-1.9c.33-.33.396-.843.158-1.246-.58-.982-1.018-2.036-1.3-3.134-.117-.453-.526-.77-.993-.77H2.05v-4.538h2.685c.467 0 .876-.317.993-.77.282-1.098.72-2.152 1.3-3.134.238-.403.173-.916-.158-1.246l-1.9-1.9 3.21-3.21 1.9 1.9c.33.33.843.396 1.246.158.982-.58 2.036-1.018 3.134-1.3.453-.117.77-.525.77-.993V2.05h4.539v2.685c0 .468.316.876.77.993 1.097.282 2.151.72 3.133 1.3.403.238.916.173 1.247-.158l1.9-1.9 3.21 3.21-1.9 1.9c-.332.33-.396.843-.158 1.246.58.982 1.017 2.036 1.3 3.133.116.454.525.77.993.77h2.684v4.54z"/>
        <path d="M22.16 11.63c-.444-.352-1.089-.278-1.44.166l-2.867 3.61c-.116-.02-.233-.03-.353-.03-1.17 0-2.124.953-2.124 2.124 0 1.171.953 2.124 2.124 2.124.567 0 1.1-.221 1.502-.622.4-.401.622-.935.621-1.502 0-.286-.056-.563-.163-.82l2.865-3.609c.352-.443.278-1.088-.165-1.44z"/>
    </g>
    <defs>
        <clipPath id="prefix__clip0">
            <path fill="#fff" d="M0 0h35v35H0V0z"/>
        </clipPath>
    </defs>
</svg>
