<svg xmlns="http://www.w3.org/2000/svg" width="16" height="16" fill="none" viewBox="0 0 16 16">
    <g clip-path="url(#prefix__clip0)">
        <path fill="#000" fill-rule="evenodd" d="M7 14s-1 0-1-1 1-4 5-4 5 3 5 4-1 1-1 1H7zm4-6c.796 0 1.559-.316 2.121-.879C13.684 6.56 14 5.796 14 5s-.316-1.559-.879-2.121C12.56 2.316 11.796 2 11 2s-1.559.316-2.121.879C8.316 3.44 8 4.204 8 5s.316 1.559.879 2.121C9.44 7.684 10.204 8 11 8zm-5.784 6c-.148-.312-.222-.655-.216-1 0-1.355.68-2.75 1.936-3.72C6.309 9.087 5.656 8.992 5 9c-4 0-5 3-5 4s1 1 1 1h4.216zM4.5 8c.663 0 1.299-.263 1.768-.732C6.737 6.798 7 6.163 7 5.5s-.263-1.299-.732-1.768C5.798 3.263 5.163 3 4.5 3s-1.299.263-1.768.732C2.263 4.202 2 4.837 2 5.5s.263 1.299.732 1.768C3.202 7.737 3.837 8 4.5 8z" clip-rule="evenodd"/>
    </g>
    <defs>
        <clipPath id="prefix__clip0">
            <path fill="#fff" d="M0 0h16v16H0V0z"/>
        </clipPath>
    </defs>
</svg>
