<svg xmlns="http://www.w3.org/2000/svg" width="37" height="37" fill="none" viewBox="0 0 37 37">
    <g clip-path="url(#prefix__clip0)">
        <path fill="#fff" d="M32 17.09c1.083-.76 1.8-2.027 1.8-3.455 0-2.335-1.888-4.224-4.223-4.224-2.336 0-4.225 1.889-4.225 4.224 0 1.428.71 2.694 1.801 3.456-.93.322-1.779.82-2.496 1.464-.988-.842-2.152-1.486-3.426-1.867 1.544-.937 2.584-2.643 2.584-4.583 0-2.957-2.394-5.351-5.352-5.351-2.957 0-5.351 2.4-5.351 5.351 0 1.94 1.032 3.646 2.584 4.583-1.26.38-2.409 1.018-3.39 1.845-.717-.63-1.551-1.12-2.467-1.435 1.084-.761 1.801-2.028 1.801-3.455 0-2.336-1.889-4.225-4.224-4.225s-4.224 1.89-4.224 4.225c0 1.427.71 2.694 1.8 3.455C2.087 18.101 0 20.861 0 24.104v.483c0 .015.015.03.03.03h8.953c-.051.402-.08.82-.08 1.237v.498c0 2.152 1.742 3.895 3.894 3.895h11.347c2.153 0 3.895-1.743 3.895-3.895v-.498c0-.417-.03-.835-.08-1.237h9.012c.014 0 .029-.015.029-.03v-.483c-.015-3.25-2.094-6.01-5-7.013zm-5.476-3.462c0-1.684 1.369-3.053 3.053-3.053 1.683 0 3.052 1.37 3.052 3.053 0 1.662-1.34 3.016-2.994 3.053H29.518c-1.662-.03-2.994-1.384-2.994-3.053zm-12.256-1.523c0-2.306 1.875-4.18 4.18-4.18 2.307 0 4.181 1.874 4.181 4.18 0 2.226-1.75 4.049-3.939 4.173h-.483c-2.189-.124-3.939-1.947-3.939-4.173zm-9.927 1.523c0-1.684 1.37-3.053 3.053-3.053 1.684 0 3.053 1.37 3.053 3.053 0 1.662-1.34 3.016-2.994 3.053H7.336c-1.655-.03-2.995-1.384-2.995-3.053zm4.847 9.81H1.186c.33-3.119 2.965-5.564 6.164-5.586h.088c1.523.008 2.914.571 3.99 1.486-1.054 1.142-1.838 2.548-2.24 4.1zm17.665 2.914c0 1.5-1.222 2.723-2.723 2.723H12.782c-1.5 0-2.723-1.222-2.723-2.723v-.498c0-4.546 3.631-8.265 8.148-8.397.08.007.168.007.25.007.08 0 .168 0 .248-.007 4.517.132 8.148 3.85 8.148 8.397v.498zm.871-2.914c-.402-1.545-1.171-2.928-2.218-4.07 1.084-.937 2.49-1.501 4.027-1.516h.087c3.2.022 5.835 2.467 6.165 5.586h-8.06z"/>
    </g>
    <defs>
        <clipPath id="prefix__clip0">
            <path fill="#fff" d="M0 0h37v37H0V0z"/>
        </clipPath>
    </defs>
</svg>
