<svg xmlns="http://www.w3.org/2000/svg" width="43" height="43" fill="none" viewBox="0 0 43 43">
    <g clip-path="url(#prefix__clip0)">
        <path fill="#fff" d="M20.604 7.167c-2 0-3.98.394-5.828 1.16-1.848.765-3.527 1.887-4.94 3.301-1.415 1.414-2.537 3.093-3.302 4.941-.765 1.848-1.159 3.829-1.159 5.829 0 2 .394 3.98 1.16 5.828.765 1.848 1.887 3.527 3.302 4.94 1.414 1.415 3.093 2.537 4.94 3.302 1.849.765 3.83 1.159 5.83 1.159 4.038 0 7.912-1.605 10.768-4.462 2.856-2.856 4.46-6.73 4.46-10.77 0-4.038-1.605-7.912-4.461-10.768-2.857-2.856-6.73-4.46-10.77-4.46zm0-1.792c4.515 0 8.844 1.793 12.036 4.985s4.985 7.522 4.985 12.036c0 4.514-1.793 8.843-4.985 12.035s-7.521 4.986-12.036 4.986c-4.514 0-8.843-1.794-12.035-4.986-3.192-3.192-4.986-7.521-4.986-12.035S5.377 13.552 8.57 10.36c3.192-3.192 7.521-4.985 12.035-4.985zm-.895 25.083H21.5v3.584H19.71v-3.584zm.895-19.708c1.663 0 3.259.66 4.434 1.837 1.177 1.176 1.837 2.77 1.837 4.434 0 1.607-1.252 2.721-2.578 3.898l-1.675 1.618c-1.054 1.208-1.168 3.503-1.124 4.286v.052h-1.79c-.007-.093-.182-3.519 1.566-5.517l1.831-1.777c1.061-.942 1.979-1.758 1.979-2.56 0-1.188-.472-2.327-1.312-3.167-.84-.84-1.98-1.312-3.168-1.312-1.188 0-2.327.472-3.167 1.312-.84.84-1.312 1.979-1.312 3.167h-1.791c0-1.663.66-3.258 1.836-4.434 1.176-1.176 2.771-1.837 4.434-1.837z"/>
    </g>
    <defs>
        <clipPath id="prefix__clip0">
            <path fill="#fff" d="M0 0h43v43H0V0z"/>
        </clipPath>
    </defs>
</svg>
