<svg xmlns="http://www.w3.org/2000/svg" width="18" height="14" fill="none" viewBox="0 0 18 14">
    <path fill="#000" fill-rule="evenodd" d="M.667 0C.49 0 .32.07.195.195S0 .49 0 .667V2c0 .177.07.346.195.471s.295.196.472.196H2c.177 0 .346-.07.471-.196.125-.125.196-.294.196-.471V.667c0-.177-.07-.347-.196-.472C2.346.07 2.177 0 2 0H.667zM2 .667H.667V2H2V.667z" clip-rule="evenodd"/>
    <path fill="#000" d="M4.667 1.333c0-.176.07-.346.195-.471s.294-.195.471-.195h12c.177 0 .347.07.472.195s.195.295.195.471c0 .177-.07.347-.195.472S17.51 2 17.333 2h-12c-.177 0-.346-.07-.471-.195s-.196-.295-.196-.472zM5.333 6c-.177 0-.346.07-.471.195s-.196.295-.196.472.07.346.196.471c.125.125.294.195.471.195h12c.177 0 .347-.07.472-.195S18 6.844 18 6.667s-.07-.347-.195-.472S17.51 6 17.333 6h-12zm0 5.333c-.177 0-.346.07-.471.196-.125.125-.196.294-.196.471s.07.347.196.472c.125.125.294.195.471.195h12c.177 0 .347-.07.472-.195S18 12.177 18 12s-.07-.346-.195-.471-.295-.196-.472-.196h-12z"/>
    <path fill="#000" fill-rule="evenodd" d="M0 6c0-.177.07-.346.195-.471.125-.126.295-.196.472-.196H2c.177 0 .346.07.471.196.125.125.196.294.196.47v1.334c0 .177-.07.347-.196.472C2.346 7.93 2.177 8 2 8H.667C.49 8 .32 7.93.195 7.805S0 7.51 0 7.333V6zm.667 0H2v1.333H.667V6zm0 4.667c-.177 0-.347.07-.472.195S0 11.156 0 11.333v1.334c0 .176.07.346.195.471s.295.195.472.195H2c.177 0 .346-.07.471-.195s.196-.295.196-.471v-1.334c0-.177-.07-.346-.196-.471-.125-.125-.294-.195-.471-.195H.667zM2 11.333H.667v1.334H2v-1.334z" clip-rule="evenodd"/>
</svg>
