<svg width="58" height="58" viewBox="0 0 58 58" fill="none" xmlns="http://www.w3.org/2000/svg">
<path fill-rule="evenodd" clip-rule="evenodd" d="M28 56C43.464 56 56 43.464 56 28C56 12.536 43.464 0 28 0C12.536 0 0 12.536 0 28C0 43.464 12.536 56 28 56Z" fill="#DADAED"/>
<path d="M33.4004 35.502C32.3783 35.9967 31.0436 36.2441 29.3965 36.2441C27.248 36.2441 25.5586 35.6126 24.3281 34.3496C23.0977 33.0866 22.4824 31.4036 22.4824 29.3008C22.4824 27.0612 23.1725 25.2448 24.5527 23.8516C25.9395 22.4583 27.7363 21.7617 29.9434 21.7617C31.3105 21.7617 32.4629 21.9342 33.4004 22.2793V25.3164C32.4629 24.7565 31.3952 24.4766 30.1973 24.4766C28.8822 24.4766 27.821 24.89 27.0137 25.7168C26.2064 26.5436 25.8027 27.6634 25.8027 29.0762C25.8027 30.4303 26.1836 31.5111 26.9453 32.3184C27.707 33.1191 28.7324 33.5195 30.0215 33.5195C31.252 33.5195 32.3783 33.2201 33.4004 32.6211V35.502Z" fill="#5558AF"/>
<circle cx="48" cy="48" r="9" fill="white" stroke="#5558AF" stroke-width="2"/>
<circle cx="48" cy="48" r="8" fill="#6BB700"/>
<path fill-rule="evenodd" clip-rule="evenodd" d="M47.0495 50.4039C47.1691 50.4039 47.2833 50.3807 47.392 50.3345C47.5007 50.2883 47.5958 50.2245 47.6774 50.1429L51.1752 46.6451C51.2568 46.5635 51.3193 46.4684 51.3628 46.3597C51.4063 46.251 51.428 46.1395 51.428 46.0254C51.428 45.9058 51.4049 45.7917 51.3587 45.6829C51.3125 45.5742 51.25 45.4805 51.1712 45.4016C51.0923 45.3228 50.9986 45.2603 50.8899 45.2141C50.7812 45.1679 50.667 45.1448 50.5474 45.1448C50.4333 45.1448 50.3205 45.1665 50.209 45.21C50.0976 45.2535 50.0011 45.316 49.9196 45.3976L47.0495 48.2676L46.0874 47.3055C45.9135 47.1316 45.7042 47.0446 45.4596 47.0446C45.34 47.0446 45.2259 47.0677 45.1172 47.1139C45.0084 47.1601 44.9133 47.224 44.8318 47.3055C44.7502 47.387 44.6864 47.4808 44.6402 47.5868C44.594 47.6928 44.5709 47.8056 44.5709 47.9252C44.5709 48.0393 44.594 48.1521 44.6402 48.2635C44.6864 48.375 44.7502 48.4715 44.8318 48.553L46.4217 50.1429C46.5033 50.2245 46.5997 50.2883 46.7112 50.3345C46.8226 50.3807 46.9354 50.4039 47.0495 50.4039Z" fill="white"/>
<ellipse cx="53" cy="41" rx="3" ry="1" fill="#C4C4C4"/>
</svg>
